<svg width="347" height="41" viewBox="0 0 347 41" fill="none" xmlns="http://www.w3.org/2000/svg">
<path d="M14.995 40.44C12.0983 40.44 9.29333 40 6.58 39.12C3.90333 38.2033 1.795 37.03 0.255 35.6L2.29 31.31C3.75667 32.63 5.62667 33.7117 7.9 34.555C10.21 35.3617 12.575 35.765 14.995 35.765C18.185 35.765 20.5683 35.2333 22.145 34.17C23.7217 33.07 24.51 31.6217 24.51 29.825C24.51 28.505 24.07 27.4417 23.19 26.635C22.3467 25.7917 21.2833 25.15 20 24.71C18.7533 24.27 16.975 23.775 14.665 23.225C11.7683 22.5283 9.42167 21.8317 7.625 21.135C5.865 20.4383 4.34333 19.375 3.06 17.945C1.81333 16.4783 1.19 14.5167 1.19 12.06C1.19 10.0067 1.72167 8.155 2.785 6.505C3.885 4.855 5.535 3.535 7.735 2.545C9.935 1.555 12.6667 1.06 15.93 1.06C18.2033 1.06 20.44 1.35333 22.64 1.94C24.84 2.52666 26.7283 3.37 28.305 4.47L26.49 8.87C24.8767 7.84333 23.1533 7.07333 21.32 6.56C19.4867 6.01 17.69 5.735 15.93 5.735C12.8133 5.735 10.4667 6.30333 8.89 7.44C7.35 8.57666 6.58 10.0433 6.58 11.84C6.58 13.16 7.02 14.2417 7.9 15.085C8.78 15.8917 9.86167 16.5333 11.145 17.01C12.465 17.45 14.2433 17.9267 16.48 18.44C19.3767 19.1367 21.705 19.8333 23.465 20.53C25.225 21.2267 26.7283 22.29 27.975 23.72C29.2583 25.15 29.9 27.075 29.9 29.495C29.9 31.5117 29.35 33.3633 28.25 35.05C27.15 36.7 25.4817 38.02 23.245 39.01C21.0083 39.9633 18.2583 40.44 14.995 40.44ZM71.0452 1.5V40H65.5452V22.84H43.4352V40H37.9352V1.5H43.4352V18.055H65.5452V1.5H71.0452ZM99.9489 40.44C96.0623 40.44 92.5606 39.5967 89.4439 37.91C86.3273 36.1867 83.8706 33.8217 82.0739 30.815C80.3139 27.8083 79.4339 24.4533 79.4339 20.75C79.4339 17.0467 80.3139 13.6917 82.0739 10.685C83.8706 7.67833 86.3273 5.33167 89.4439 3.645C92.5606 1.92167 96.0623 1.06 99.9489 1.06C103.799 1.06 107.282 1.92167 110.399 3.645C113.516 5.33167 115.954 7.67833 117.714 10.685C119.474 13.655 120.354 17.01 120.354 20.75C120.354 24.49 119.474 27.8633 117.714 30.87C115.954 33.84 113.516 36.1867 110.399 37.91C107.282 39.5967 103.799 40.44 99.9489 40.44ZM99.9489 35.545C102.772 35.545 105.302 34.9033 107.539 33.62C109.812 32.3367 111.591 30.5767 112.874 28.34C114.194 26.0667 114.854 23.5367 114.854 20.75C114.854 17.9633 114.194 15.4517 112.874 13.215C111.591 10.9417 109.812 9.16333 107.539 7.88C105.302 6.59667 102.772 5.955 99.9489 5.955C97.1256 5.955 94.5589 6.59667 92.2489 7.88C89.9756 9.16333 88.1789 10.9417 86.8589 13.215C85.5756 15.4517 84.9339 17.9633 84.9339 20.75C84.9339 23.5367 85.5756 26.0667 86.8589 28.34C88.1789 30.5767 89.9756 32.3367 92.2489 33.62C94.5589 34.9033 97.1256 35.545 99.9489 35.545ZM143.775 1.5C148.762 1.5 152.685 2.69166 155.545 5.075C158.405 7.45833 159.835 10.74 159.835 14.92C159.835 19.1 158.405 22.3817 155.545 24.765C152.685 27.1483 148.762 28.34 143.775 28.34H134.26V40H128.76V1.5H143.775ZM143.61 23.555C147.094 23.555 149.752 22.8217 151.585 21.355C153.419 19.8517 154.335 17.7067 154.335 14.92C154.335 12.1333 153.419 10.0067 151.585 8.54C149.752 7.03666 147.094 6.285 143.61 6.285H134.26V23.555H143.61ZM193.258 20.145H201.398V35.765C199.308 37.3417 196.888 38.5517 194.138 39.395C191.388 40.2383 188.619 40.66 185.833 40.66C181.836 40.66 178.243 39.8167 175.053 38.13C171.863 36.4067 169.351 34.0417 167.518 31.035C165.721 27.9917 164.823 24.5633 164.823 20.75C164.823 16.9367 165.721 13.5267 167.518 10.52C169.351 7.47667 171.881 5.11167 175.108 3.425C178.334 1.70167 181.964 0.839999 185.998 0.839999C189.371 0.839999 192.433 1.40833 195.183 2.545C197.933 3.68166 200.243 5.33166 202.113 7.495L196.393 12.775C193.643 9.87833 190.324 8.43 186.438 8.43C183.981 8.43 181.799 8.94333 179.893 9.97C177.986 10.9967 176.501 12.445 175.438 14.315C174.374 16.185 173.843 18.33 173.843 20.75C173.843 23.1333 174.374 25.26 175.438 27.13C176.501 29 177.968 30.4667 179.838 31.53C181.744 32.5567 183.908 33.07 186.328 33.07C188.894 33.07 191.204 32.52 193.258 31.42V20.145ZM226.779 40.66C221.279 40.66 216.989 39.1383 213.909 36.095C210.866 33.0517 209.344 28.7067 209.344 23.06V1.5H218.254V22.73C218.254 29.6233 221.114 33.07 226.834 33.07C229.621 33.07 231.748 32.245 233.214 30.595C234.681 28.9083 235.414 26.2867 235.414 22.73V1.5H244.214V23.06C244.214 28.7067 242.674 33.0517 239.594 36.095C236.551 39.1383 232.279 40.66 226.779 40.66ZM253.019 1.5H261.929V40H253.019V1.5ZM271.066 1.5H288.556C292.736 1.5 296.421 2.30666 299.611 3.92C302.838 5.49667 305.331 7.73333 307.091 10.63C308.888 13.5267 309.786 16.9 309.786 20.75C309.786 24.6 308.888 27.9733 307.091 30.87C305.331 33.7667 302.838 36.0217 299.611 37.635C296.421 39.2117 292.736 40 288.556 40H271.066V1.5ZM288.116 32.685C291.966 32.685 295.028 31.6217 297.301 29.495C299.611 27.3317 300.766 24.4167 300.766 20.75C300.766 17.0833 299.611 14.1867 297.301 12.06C295.028 9.89667 291.966 8.815 288.116 8.815H279.976V32.685H288.116ZM346.315 32.85V40H316.505V1.5H345.6V8.65H325.36V17.01H343.235V23.94H325.36V32.85H346.315Z" fill="white"/>
</svg>
