<svg width="225" height="64" viewBox="0 0 225 64" fill="none" xmlns="http://www.w3.org/2000/svg">
<path d="M218.012 63.1701H218.011H6.54924H6.54873C4.96539 63.1718 3.44747 62.5522 2.32846 61.4498C1.20974 60.3477 0.581246 58.8532 0.579102 57.2955V6.46282C0.581246 4.90419 1.20956 3.4088 2.32818 2.30531C3.44705 1.20156 4.96507 0.580274 6.54924 0.579834C6.54929 0.579834 6.54933 0.579834 6.54937 0.579834L218.009 0.579834C218.793 0.579834 219.569 0.732339 220.293 1.02849C221.017 1.32463 221.674 1.75853 222.228 2.3051C222.781 2.85165 223.22 3.50015 223.519 4.21339C223.818 4.92663 223.971 5.69082 223.971 6.46236L223.973 57.2958C223.973 58.0669 223.819 58.8305 223.52 59.5432C223.221 60.2558 222.782 60.9037 222.229 61.4495C221.675 61.9954 221.018 62.4285 220.295 62.7239C219.571 63.0192 218.795 63.1709 218.012 63.1701Z" stroke="white"/>
<path d="M49.356 31.5255C49.3071 26.1614 53.8036 23.5517 54.0093 23.4302C51.4627 19.7638 47.5155 19.2628 46.1285 19.2228C42.8133 18.8783 39.5977 21.1818 37.9089 21.1818C36.1865 21.1818 33.5859 19.2561 30.7832 19.3127C27.1765 19.3676 23.8023 21.4297 21.9518 24.6319C18.1328 31.161 20.981 40.7558 24.64 46.0334C26.4703 48.6197 28.609 51.504 31.4084 51.4025C34.1472 51.2926 35.1702 49.6799 38.4752 49.6799C41.7499 49.6799 42.7105 51.4025 45.5656 51.3376C48.5048 51.2926 50.3554 48.7412 52.1216 46.1332C54.2368 43.1724 55.0862 40.2532 55.1199 40.1034C55.0525 40.0801 49.4133 37.9531 49.356 31.5255ZM43.9628 15.7511C45.4358 13.932 46.4436 11.4571 46.1639 8.94568C44.0319 9.03888 41.3656 10.402 39.8302 12.1811C38.4718 13.7489 37.2584 16.3186 37.5718 18.7352C39.9667 18.9116 42.4257 17.5419 43.9628 15.7511Z" fill="white"/>
<path d="M89.0246 51.0313H85.1972L83.1006 44.5255H75.813L73.8158 51.0313H70.0895L77.3113 28.8826H81.7708L89.0246 51.0313ZM82.4685 41.796L80.5725 36.0125C80.3719 35.4217 79.9944 34.0303 79.4416 31.8401H79.3742C79.1517 32.7821 78.7961 34.1734 78.309 36.0125L76.445 41.796H82.4685ZM107.56 42.8495C107.56 45.5657 106.814 47.7127 105.319 49.2888C103.981 50.6918 102.317 51.3925 100.333 51.3925C98.1914 51.3925 96.6509 50.6385 95.7156 49.1273V57.5072H92.1223V40.3098C92.1223 38.6038 92.0768 36.8546 91.9892 35.0605H95.1493L95.3498 37.5919H95.4172C96.6155 35.6846 98.4341 34.731 100.874 34.731C102.782 34.731 104.375 35.4749 105.649 36.9645C106.922 38.4574 107.56 40.418 107.56 42.8495ZM103.9 42.9793C103.9 41.4249 103.546 40.1433 102.835 39.1331C102.058 38.0829 101.014 37.557 99.7065 37.557C98.82 37.557 98.0144 37.8499 97.2948 38.4274C96.5734 39.0099 96.1015 39.7705 95.8807 40.7125C95.7822 41.0648 95.7262 41.4274 95.7139 41.7927V44.4573C95.7139 45.6173 96.0745 46.5976 96.7959 47.3998C97.5172 48.1986 98.4543 48.5997 99.6071 48.5997C100.96 48.5997 102.014 48.0821 102.767 47.0553C103.522 46.025 103.9 44.667 103.9 42.9793ZM126.162 42.8495C126.162 45.5657 125.415 47.7127 123.92 49.2888C122.58 50.6918 120.919 51.3925 118.933 51.3925C116.791 51.3925 115.251 50.6385 114.315 49.1273V57.5072H110.722V40.3098C110.722 38.6038 110.677 36.8546 110.589 35.0605H113.749L113.95 37.5919H114.017C115.214 35.6846 117.032 34.731 119.474 34.731C121.38 34.731 122.973 35.4749 124.251 36.9645C125.521 38.4574 126.162 40.418 126.162 42.8495ZM122.499 42.9793C122.499 41.4249 122.144 40.1433 121.433 39.1331C120.656 38.0829 119.616 37.557 118.308 37.557C117.421 37.557 116.616 37.8499 115.893 38.4274C115.171 39.0099 114.701 39.7705 114.48 40.7125C114.371 41.1519 114.312 41.5097 114.312 41.7927V44.4573C114.312 45.6173 114.674 46.5976 115.392 47.3998C116.114 48.197 117.051 48.5997 118.207 48.5997C119.562 48.5997 120.615 48.0821 121.367 47.0553C122.122 46.025 122.499 44.667 122.499 42.9793ZM146.959 44.8184C146.959 46.7041 146.292 48.2369 144.965 49.4203C143.506 50.7118 141.468 51.3592 138.856 51.3592C136.443 51.3592 134.508 50.8998 133.048 49.9795L133.879 47.022C135.455 47.944 137.186 48.4034 139.07 48.4034C140.425 48.4034 141.478 48.1005 142.23 47.4996C142.984 46.8971 143.364 46.0916 143.364 45.0864C143.364 44.186 143.049 43.432 142.431 42.8179C141.809 42.2054 140.781 41.6346 139.336 41.1103C135.409 39.664 133.444 37.5487 133.444 34.7659C133.444 32.9485 134.139 31.4606 135.524 30.2972C136.909 29.1355 138.746 28.5547 141.032 28.5547C143.073 28.5547 144.773 28.9059 146.123 29.6065L145.222 32.4991C143.951 31.8201 142.517 31.4806 140.912 31.4806C139.645 31.4806 138.65 31.7885 137.939 32.4009C137.341 32.9485 137.038 33.6159 137.038 34.4081C137.038 35.2819 137.383 36.0075 138.071 36.5767C138.667 37.101 139.756 37.6718 141.33 38.2843C143.262 39.0532 144.681 39.9486 145.589 40.9772C146.504 42.0057 146.959 43.2889 146.959 44.8184ZM158.87 37.7234H154.909V45.4775C154.909 47.4497 155.607 48.4333 157.006 48.4333C157.648 48.4333 158.18 48.3801 158.602 48.2685L158.701 50.9631C157.993 51.2244 157.061 51.3559 155.907 51.3559C154.488 51.3559 153.379 50.9281 152.578 50.0727C151.781 49.2172 151.38 47.7842 151.38 45.7671V37.7168H149.021V35.0539H151.38V32.1296L154.909 31.0778V35.0539H158.87V37.7234ZM176.704 42.9144C176.704 45.3693 175.993 47.3848 174.574 48.9609C173.089 50.5836 171.114 51.3925 168.652 51.3925C166.275 51.3925 164.386 50.6152 162.977 49.0624C161.568 47.5063 160.864 45.5457 160.864 43.1807C160.864 40.7059 161.592 38.6787 163.043 37.1026C164.497 35.5249 166.456 34.736 168.918 34.736C171.291 34.736 173.197 35.5149 174.64 37.0693C176.018 38.5772 176.704 40.5245 176.704 42.9144ZM172.98 42.996C172.98 41.533 172.66 40.2782 172.017 39.228C171.264 37.9598 170.185 37.3256 168.788 37.3256C167.349 37.3256 166.245 37.9598 165.493 39.228C164.85 40.2782 164.529 41.5547 164.529 43.0626C164.529 44.5272 164.85 45.7854 165.493 46.8322C166.27 48.1005 167.354 48.7346 168.758 48.7346C170.131 48.7346 171.208 48.0871 171.987 46.8006C172.648 45.7255 172.98 44.4622 172.98 42.996ZM188.389 38.1811C188.015 38.1145 187.636 38.0816 187.257 38.0829C185.993 38.0829 185.015 38.5523 184.327 39.4976C183.731 40.3297 183.431 41.3816 183.431 42.6515V51.0313H179.838V40.0901C179.841 38.4136 179.806 36.7372 179.733 35.0622H182.863L182.994 38.1179H183.094C183.475 37.0677 184.071 36.2205 184.89 35.5864C185.64 35.0323 186.551 34.7323 187.487 34.731C187.819 34.731 188.119 34.7543 188.386 34.7959L188.389 38.1811ZM204.459 42.2903C204.468 42.8297 204.424 43.3687 204.328 43.8997H193.548C193.588 45.4775 194.111 46.6858 195.112 47.5179C196.02 48.2602 197.195 48.633 198.638 48.633C200.234 48.633 201.69 48.3834 203 47.8791L203.563 50.3406C202.032 50.9997 200.225 51.3276 198.141 51.3276C195.633 51.3276 193.664 50.5986 192.232 49.144C190.803 47.6877 190.086 45.7305 190.086 43.2789C190.086 40.8723 190.752 38.8668 192.085 37.2674C193.481 35.5598 195.367 34.706 197.74 34.706C200.07 34.706 201.835 35.5598 203.033 37.2674C203.982 38.6205 204.459 40.2981 204.459 42.2903ZM201.033 41.3699C201.058 40.3164 200.822 39.4094 200.335 38.6421C199.713 37.6535 198.756 37.1609 197.473 37.1609C196.299 37.1609 195.341 37.6419 194.613 38.6072C194.015 39.3744 193.659 40.2965 193.55 41.3666L201.033 41.3699Z" fill="white"/>
<path d="M74.7764 21.0519C73.777 21.0519 72.9124 21.0037 72.1927 20.9221V10.2139C73.1993 10.0603 74.2164 9.98466 75.2348 9.98754C79.3556 9.98754 81.2533 11.9897 81.2533 15.2534C81.2533 19.0181 79.0118 21.0519 74.7764 21.0519ZM75.3798 11.3606C74.8236 11.3606 74.35 11.3939 73.9573 11.4738V19.614C74.1697 19.6472 74.5775 19.6622 75.1506 19.6622C77.8505 19.6622 79.3876 18.1444 79.3876 15.3017C79.3876 12.7669 77.9972 11.3606 75.3798 11.3606ZM87.1673 21.1335C84.8448 21.1335 83.3398 19.4209 83.3398 17.0958C83.3398 14.6726 84.8769 12.945 87.2987 12.945C89.5875 12.945 91.1262 14.5761 91.1262 16.9677C91.1262 19.4209 89.5403 21.1335 87.1673 21.1335ZM87.2347 14.2199C85.9589 14.2199 85.1415 15.3982 85.1415 17.0459C85.1415 18.662 85.9757 19.8403 87.2178 19.8403C88.46 19.8403 89.2942 18.5804 89.2942 17.0126C89.2942 15.4149 88.4768 14.2199 87.2347 14.2199ZM104.37 13.1065L101.884 20.9554H100.264L99.2345 17.5469C98.9785 16.7131 98.7653 15.8671 98.5958 15.0121H98.5621C98.4323 15.8676 98.1862 16.7247 97.925 17.5469L96.8295 20.9554H95.193L92.8537 13.1065H94.6689L95.5689 16.8379C95.7812 17.7266 95.9599 18.5654 96.1082 19.3577H96.1419C96.2717 18.6969 96.484 17.8714 96.7958 16.8545L97.925 13.1081H99.3643L100.445 16.7746C100.706 17.6634 100.918 18.5355 101.083 19.3593H101.131C101.245 18.5521 101.426 17.695 101.67 16.7746L102.636 13.1081L104.37 13.1065ZM113.521 20.9554H111.755V16.4484C111.755 15.0604 111.216 14.3647 110.152 14.3647C109.106 14.3647 108.386 15.2534 108.386 16.287V20.9554H106.62V15.35C106.62 14.6559 106.603 13.912 106.554 13.1048H108.108L108.191 14.3164H108.239C108.715 13.4776 109.679 12.945 110.759 12.945C112.428 12.945 113.523 14.2049 113.523 16.2554L113.521 20.9554ZM118.392 20.9554H116.624V9.50488H118.392V20.9554ZM124.832 21.1335C122.511 21.1335 121.004 19.4209 121.004 17.0958C121.004 14.6726 122.542 12.945 124.962 12.945C127.252 12.945 128.789 14.5761 128.789 16.9677C128.791 19.4209 127.203 21.1335 124.832 21.1335ZM124.898 14.2199C123.622 14.2199 122.804 15.3982 122.804 17.0459C122.804 18.662 123.64 19.8403 124.879 19.8403C126.123 19.8403 126.956 18.5804 126.956 17.0126C126.957 15.4149 126.141 14.2199 124.898 14.2199ZM135.753 20.9554L135.625 20.0517H135.578C135.039 20.779 134.252 21.1335 133.254 21.1335C131.83 21.1335 130.818 20.1482 130.818 18.8234C130.818 16.8861 132.519 15.8842 135.463 15.8842V15.7394C135.463 14.7059 134.909 14.1883 133.813 14.1883C133.03 14.1883 132.342 14.383 131.737 14.7708L131.378 13.6241C132.113 13.1714 133.03 12.945 134.107 12.945C136.183 12.945 137.231 14.0268 137.231 16.1921V19.083C137.231 19.8753 137.267 20.4894 137.346 20.9571L135.753 20.9554ZM135.51 17.0459C133.549 17.0459 132.564 17.5153 132.564 18.6287C132.564 19.4525 133.072 19.8553 133.776 19.8553C134.675 19.8553 135.51 19.1779 135.51 18.2575V17.0459ZM145.808 20.9554L145.726 19.6955H145.677C145.169 20.6475 144.317 21.1335 143.125 21.1335C141.209 21.1335 139.79 19.4692 139.79 17.1275C139.79 14.6726 141.261 12.9434 143.27 12.9434C144.333 12.9434 145.087 13.2979 145.511 14.0102H145.547V9.50488H147.315V18.84C147.315 19.599 147.333 20.3096 147.381 20.9554H145.808ZM145.547 16.3369C145.547 15.2385 144.81 14.3015 143.686 14.3015C142.377 14.3015 141.576 15.4482 141.576 17.0626C141.576 18.6453 142.407 19.7288 143.651 19.7288C144.761 19.7288 145.547 18.7751 145.547 17.6451V16.3369ZM158.524 21.1335C156.203 21.1335 154.698 19.4209 154.698 17.0958C154.698 14.6726 156.236 12.945 158.656 12.945C160.946 12.945 162.483 14.5761 162.483 16.9677C162.485 19.4209 160.899 21.1335 158.524 21.1335ZM158.59 14.2199C157.316 14.2199 156.498 15.3982 156.498 17.0459C156.498 18.662 157.333 19.8403 158.573 19.8403C159.817 19.8403 160.649 18.5804 160.649 17.0126C160.653 15.4149 159.835 14.2199 158.59 14.2199ZM171.982 20.9554H170.214V16.4484C170.214 15.0604 169.675 14.3647 168.611 14.3647C167.565 14.3647 166.847 15.2534 166.847 16.287V20.9554H165.079V15.35C165.079 14.6559 165.062 13.912 165.013 13.1048H166.567L166.649 14.3164H166.698C167.172 13.4776 168.138 12.9434 169.216 12.9434C170.885 12.9434 171.982 14.2033 171.982 16.2537V20.9554ZM183.865 14.4146H181.922V18.2259C181.922 19.1962 182.263 19.6805 182.95 19.6805C183.262 19.6805 183.523 19.6472 183.734 19.599L183.783 20.9238C183.441 21.0536 182.982 21.1185 182.413 21.1185C181.021 21.1185 180.188 20.3596 180.188 18.3724V14.4146H179.028V13.1065H180.188V11.6685L181.922 11.1509V13.1048H183.865V14.4146ZM193.216 20.9554H191.451V16.4817C191.451 15.077 190.914 14.3664 189.849 14.3664C188.933 14.3664 188.081 14.9805 188.081 16.2237V20.9554H186.316V9.50488H188.081V14.2199H188.116C188.672 13.3644 189.478 12.9434 190.506 12.9434C192.188 12.9434 193.216 14.2349 193.216 16.287V20.9554ZM202.796 17.4503H197.495C197.529 18.9366 198.525 19.7754 200 19.7754C200.783 19.7754 201.505 19.6456 202.142 19.4043L202.416 20.6159C201.665 20.9388 200.78 21.1002 199.75 21.1002C197.264 21.1002 195.793 19.549 195.793 17.1441C195.793 14.7375 197.3 12.9284 199.551 12.9284C201.582 12.9284 202.856 14.4146 202.856 16.6598C202.868 16.9247 202.847 17.1901 202.796 17.4503ZM201.176 16.2071C201.176 14.9955 200.557 14.14 199.428 14.14C198.414 14.14 197.611 15.0121 197.497 16.2071H201.176Z" fill="white"/>
</svg>
