<svg width="244" height="53" viewBox="0 0 244 53" fill="none" xmlns="http://www.w3.org/2000/svg">
<rect width="244" height="40" fill="#29D3D1"/>
<path d="M29.216 15.824H25.28V26H24.112V15.824H20.176V14.8H29.216V15.824ZM35.25 26.096C34.1407 26.096 33.1327 25.8507 32.226 25.36C31.33 24.8587 30.626 24.176 30.114 23.312C29.6127 22.448 29.362 21.4773 29.362 20.4C29.362 19.3227 29.6127 18.352 30.114 17.488C30.626 16.624 31.33 15.9467 32.226 15.456C33.1327 14.9547 34.1407 14.704 35.25 14.704C36.3593 14.704 37.3567 14.9493 38.242 15.44C39.138 15.9307 39.842 16.6133 40.354 17.488C40.866 18.352 41.122 19.3227 41.122 20.4C41.122 21.4773 40.866 22.4533 40.354 23.328C39.842 24.192 39.138 24.8693 38.242 25.36C37.3567 25.8507 36.3593 26.096 35.25 26.096ZM35.25 25.04C36.1353 25.04 36.9353 24.8427 37.65 24.448C38.3647 24.0427 38.9247 23.488 39.33 22.784C39.7353 22.0693 39.938 21.2747 39.938 20.4C39.938 19.5253 39.7353 18.736 39.33 18.032C38.9247 17.3173 38.3647 16.7627 37.65 16.368C36.9353 15.9627 36.1353 15.76 35.25 15.76C34.3647 15.76 33.5593 15.9627 32.834 16.368C32.1193 16.7627 31.554 17.3173 31.138 18.032C30.7327 18.736 30.53 19.5253 30.53 20.4C30.53 21.2747 30.7327 22.0693 31.138 22.784C31.554 23.488 32.1193 24.0427 32.834 24.448C33.5593 24.8427 34.3647 25.04 35.25 25.04ZM51.6189 14.8V26H50.4509V15.824H45.0429L44.9149 19.568C44.8615 21.1147 44.7335 22.3627 44.5309 23.312C44.3389 24.2507 44.0402 24.9547 43.6349 25.424C43.2295 25.8827 42.6909 26.112 42.0189 26.112C41.7309 26.112 41.4322 26.0747 41.1229 26L41.2189 24.944C41.4002 24.9867 41.5762 25.008 41.7469 25.008C42.2162 25.008 42.5949 24.8213 42.8829 24.448C43.1815 24.0747 43.4055 23.4987 43.5549 22.72C43.7042 21.9307 43.8055 20.8907 43.8589 19.6L44.0189 14.8H51.6189ZM59.2854 18.8C60.608 18.8 61.616 19.0987 62.3094 19.696C63.0134 20.2933 63.3654 21.168 63.3654 22.32C63.3654 23.5253 62.992 24.4427 62.2454 25.072C61.5094 25.6907 60.4427 26 59.0454 26H54.5974V14.8H55.7654V18.8H59.2854ZM59.0134 25.056C60.048 25.056 60.832 24.8267 61.3654 24.368C61.9094 23.9093 62.1814 23.232 62.1814 22.336C62.1814 20.6187 61.1254 19.76 59.0134 19.76H55.7654V25.056H59.0134ZM68.8687 20.864H66.3087V26H65.1567V14.8H66.3087V19.824H68.8687L72.6607 14.8H73.9408L69.7807 20.24L74.1807 26H72.8207L68.8687 20.864ZM80.0969 26.096C78.9875 26.096 77.9795 25.8507 77.0729 25.36C76.1769 24.8587 75.4729 24.176 74.9609 23.312C74.4595 22.448 74.2089 21.4773 74.2089 20.4C74.2089 19.3227 74.4595 18.352 74.9609 17.488C75.4729 16.624 76.1769 15.9467 77.0729 15.456C77.9795 14.9547 78.9875 14.704 80.0969 14.704C81.2062 14.704 82.2035 14.9493 83.0889 15.44C83.9849 15.9307 84.6889 16.6133 85.2009 17.488C85.7129 18.352 85.9689 19.3227 85.9689 20.4C85.9689 21.4773 85.7129 22.4533 85.2009 23.328C84.6889 24.192 83.9849 24.8693 83.0889 25.36C82.2035 25.8507 81.2062 26.096 80.0969 26.096ZM80.0969 25.04C80.9822 25.04 81.7822 24.8427 82.4969 24.448C83.2115 24.0427 83.7715 23.488 84.1769 22.784C84.5822 22.0693 84.7849 21.2747 84.7849 20.4C84.7849 19.5253 84.5822 18.736 84.1769 18.032C83.7715 17.3173 83.2115 16.7627 82.4969 16.368C81.7822 15.9627 80.9822 15.76 80.0969 15.76C79.2115 15.76 78.4062 15.9627 77.6809 16.368C76.9662 16.7627 76.4009 17.3173 75.9849 18.032C75.5795 18.736 75.3769 19.5253 75.3769 20.4C75.3769 21.2747 75.5795 22.0693 75.9849 22.784C76.4009 23.488 76.9662 24.0427 77.6809 24.448C78.4062 24.8427 79.2115 25.04 80.0969 25.04ZM100.166 14.8V26H98.9978V15.824H93.5898L93.4618 19.568C93.4084 21.1147 93.2804 22.3627 93.0778 23.312C92.8858 24.2507 92.5871 24.9547 92.1818 25.424C91.7764 25.8827 91.2378 26.112 90.5658 26.112C90.2778 26.112 89.9791 26.0747 89.6698 26L89.7658 24.944C89.9471 24.9867 90.1231 25.008 90.2938 25.008C90.7631 25.008 91.1418 24.8213 91.4298 24.448C91.7284 24.0747 91.9524 23.4987 92.1018 22.72C92.2511 21.9307 92.3524 20.8907 92.4058 19.6L92.5658 14.8H100.166ZM111.944 14.8L106.856 24.224C106.494 24.896 106.067 25.3973 105.576 25.728C105.096 26.048 104.568 26.208 103.992 26.208C103.566 26.208 103.107 26.1067 102.616 25.904L102.952 24.944C103.336 25.0933 103.688 25.168 104.008 25.168C104.744 25.168 105.347 24.768 105.816 23.968L106.136 23.424L101.592 14.8H102.856L106.76 22.384L110.76 14.8H111.944ZM121.123 14.8V26H119.971V21.36C118.755 21.8827 117.577 22.144 116.435 22.144C115.123 22.144 114.099 21.824 113.363 21.184C112.638 20.544 112.275 19.648 112.275 18.496V14.8H113.443V18.368C113.443 19.232 113.715 19.904 114.259 20.384C114.803 20.864 115.566 21.104 116.547 21.104C117.667 21.104 118.809 20.8373 119.971 20.304V14.8H121.123ZM137.85 14.8V26H124.122V14.8H125.29V24.976H130.41V14.8H131.578V24.976H136.682V14.8H137.85ZM140.822 14.8H141.99V24.08L149.158 14.8H150.23V26H149.062V16.736L141.894 26H140.822V14.8ZM161.13 24.976V26H153.21V14.8H160.89V15.824H154.394V19.808H160.186V20.816H154.394V24.976H161.13ZM173.512 23.008H167.272L165.928 26H164.696L169.816 14.8H170.984L176.104 26H174.856L173.512 23.008ZM173.08 22.048L170.392 16.032L167.704 22.048H173.08ZM181.163 20.864H178.603V26H177.451V14.8H178.603V19.824H181.163L184.955 14.8H186.235L182.075 20.24L186.475 26H185.115L181.163 20.864ZM198.374 24.976V28.624H197.27V26H187.494V14.8H188.662V24.976H195.43V14.8H196.598V24.976H198.374ZM199.929 14.8H201.097V24.08L208.265 14.8H209.337V26H208.169V16.736L201.001 26H199.929V14.8ZM212.316 14.8H213.484V24.08L220.652 14.8H221.724V26H220.556V16.736L213.388 26H212.316V14.8Z" fill="white"/>
<path d="M-2.00272e-05 52.75L-2.01881e-05 40L14.7224 40L-2.00272e-05 52.75Z" fill="url(#paint0_linear_1_22)"/>
<defs>
<linearGradient id="paint0_linear_1_22" x1="7.36119" y1="40" x2="7.3612" y2="52.75" gradientUnits="userSpaceOnUse">
<stop stop-color="#25B4B2"/>
<stop offset="1" stop-color="#29D3D1"/>
</linearGradient>
</defs>
</svg>
